<svg version="1.1" xmlns="http://www.w3.org/2000/svg" xmlns:xlink="http://www.w3.org/1999/xlink" x="0px" y="0px" width="512px"
	 height="512px" viewBox="0 0 512 512" style="enable-background:new 0 0 512 512;" xml:space="preserve">
<g id="_x31_73_x2C__Space_x2C__Star_x2C__Universe">
	<g>
		<path fill="white" d="M444.83,415.293c13.13-15.644,6.658-42.995-19.207-81.326c30.976-69.616,15.432-156.842-48.903-210.84
			c-61.61-51.712-149.843-56.093-216.067-11.58c-42.27-18.85-70.349-20.49-83.483-4.84c-13.129,15.643-6.657,42.994,19.207,81.326
			c-30.975,69.613-15.431,156.843,48.904,210.839c61.61,51.711,149.84,56.095,216.065,11.582
			C386.29,421.579,427.201,436.3,444.83,415.293z M420.394,247.076c4.896,56.063-19.599,107.897-61.233,140.284
			c-80.872-39.418-186.884-128.434-239.649-201.155c27.618-51.995,81.516-85.208,141.577-85.208
			C342.331,100.996,413.029,162.789,420.394,247.076z M92.489,119.564c3.487-4.154,17.813-6.751,49.954,5.999
			c-14.187,12.436-25.975,26.643-35.405,42.127C88.929,138.268,89.003,123.717,92.489,119.564z M158.138,383.553
			c-53.595-44.982-69.352-116.333-47.9-176.352c54.098,70.276,151.166,151.775,229.839,192.925
			C282.068,433.112,209.403,426.582,158.138,383.553z M379.557,396.437c14.101-12.36,25.921-26.551,35.404-42.127
			c18.111,29.422,18.036,43.973,14.55,48.126C426.025,406.59,411.7,409.188,379.557,396.437z"/>
		<circle fill="white" cx="151" cy="51" r="10"/>
		<circle fill="white" cx="331" cy="51" r="10"/>
		<circle fill="white" cx="461" cy="171" r="10"/>
		<circle fill="white" cx="451" cy="461" r="10"/>
		<circle fill="white" cx="271" cy="461" r="10"/>
		<circle fill="white" cx="141" cy="441" r="10"/>
		<circle fill="white" cx="61" cy="341" r="10"/>
		<circle fill="white" cx="51" cy="131" r="10"/>
		<circle fill="white" cx="141" cy="291" r="10"/>
		<circle fill="white" cx="181" cy="181" r="10"/>
		<circle fill="white" cx="281" cy="271" r="10"/>
		<circle fill="white" cx="281" cy="391" r="10"/>
		<path fill="white" d="M351,311c16.542,0,30-13.458,30-30s-13.458-30-30-30s-30,13.458-30,30S334.458,311,351,311z M351,271
			c5.514,0,10,4.486,10,10s-4.486,10-10,10s-10-4.486-10-10S345.486,271,351,271z"/>
		<path fill="white" d="M251,231c27.57,0,50-22.43,50-50s-22.43-50-50-50s-50,22.43-50,50S223.43,231,251,231z M251,151c16.542,0,30,13.458,30,30
			s-13.458,30-30,30s-30-13.458-30-30S234.458,151,251,151z"/>
		<path fill="white" d="M201,331c-16.542,0-30,13.458-30,30s13.458,30,30,30s30-13.458,30-30S217.542,331,201,331z M201,371
			c-5.514,0-10-4.486-10-10s4.486-10,10-10s10,4.486,10,10S206.514,371,201,371z"/>
		<path fill="white" d="M81,401c-16.542,0-30,13.458-30,30s13.458,30,30,30s30-13.458,30-30S97.542,401,81,401z M81,441c-5.514,0-10-4.486-10-10
			s4.486-10,10-10s10,4.486,10,10S86.514,441,81,441z"/>
		<path fill="white" d="M436,111c19.299,0,35-15.701,35-35s-15.701-35-35-35s-35,15.701-35,35S416.701,111,436,111z M436,61
			c8.271,0,15,6.729,15,15s-6.729,15-15,15s-15-6.729-15-15S427.729,61,436,61z"/>
	</g>
</g>
<g id="Layer_1">
</g>
</svg>